<svg width="16" height="16" viewBox="0 0 16 16"
  xmlns="http://www.w3.org/2000/svg">
  <path
    d="M12.8538 12.1462C12.9002 12.1927 12.9371 12.2478 12.9622 12.3085C12.9874 12.3692 13.0003 12.4343 13.0003 12.5C13.0003 12.5657 12.9874 12.6307 12.9622 12.6914C12.9371 12.7521 12.9002 12.8073 12.8538 12.8537C12.8073 12.9002 12.7522 12.937 12.6915 12.9622C12.6308 12.9873 12.5657 13.0003 12.5 13.0003C12.4343 13.0003 12.3693 12.9873 12.3086 12.9622C12.2479 12.937 12.1927 12.9002 12.1463 12.8537L8.00003 8.70685L3.85378 12.8537C3.75996 12.9475 3.63272 13.0003 3.50003 13.0003C3.36735 13.0003 3.2401 12.9475 3.14628 12.8537C3.05246 12.7599 2.99976 12.6327 2.99976 12.5C2.99976 12.3673 3.05246 12.24 3.14628 12.1462L7.29316 7.99997L3.14628 3.85372C3.05246 3.7599 2.99976 3.63265 2.99976 3.49997C2.99976 3.36729 3.05246 3.24004 3.14628 3.14622C3.2401 3.0524 3.36735 2.99969 3.50003 2.99969C3.63272 2.99969 3.75996 3.0524 3.85378 3.14622L8.00003 7.2931L12.1463 3.14622C12.2401 3.0524 12.3674 2.99969 12.5 2.99969C12.6327 2.99969 12.76 3.0524 12.8538 3.14622C12.9476 3.24004 13.0003 3.36729 13.0003 3.49997C13.0003 3.63265 12.9476 3.7599 12.8538 3.85372L8.70691 7.99997L12.8538 12.1462Z" />
</svg>
